<svg width="48" height="62" viewBox="0 0 48 62" fill="none" xmlns="http://www.w3.org/2000/svg">
<g filter="url(#filter0_f_1063_3236)">
<path d="M43 53C43 55.7614 34.4934 58 24 58C13.5066 58 5 55.7614 5 53C5 50.2386 13.5066 48 24 48C34.4934 48 43 50.2386 43 53Z" fill="#554596" fill-opacity="0.1"/>
</g>
<ellipse cx="16.4795" cy="24.0376" rx="1" ry="0.993289" transform="rotate(21 16.4795 24.0376)" fill="#C92C7B"/>
<ellipse cx="20.2138" cy="25.4707" rx="1" ry="0.993289" transform="rotate(21 20.2138 25.4707)" fill="#C92C7B"/>
<ellipse cx="23.9482" cy="26.9043" rx="1" ry="0.993289" transform="rotate(21 23.9482 26.9043)" fill="#C92C7B"/>
<path d="M9.08819 44.9364H24.816M9.08819 44.9364V46.9523C9.08819 48.6223 7.7253 49.9762 6.04409 49.9762M9.08819 44.9364C9.08819 43.2664 7.7253 41.9126 6.04409 41.9126M24.816 47.9603H9.08819M21.7719 44.9364V38.6411M21.7719 47.9603V49.9762C21.7719 50.8112 22.4534 51.4881 23.294 51.4881C24.1346 51.4881 24.816 50.8112 24.816 49.9762V39.7994M28.0736 36.7254L27.3463 38.6074C26.9564 39.6166 25.8384 40.1353 24.816 39.7994M20.7609 33.937L20.0337 35.819C19.632 36.8584 20.1546 38.0244 21.201 38.4234L21.7719 38.6411M24.6937 32.1977L29.1921 29.9477C29.4474 29.82 29.7452 29.8052 30.0121 29.907L37.1714 32.6369M13.3261 27.8631L12.5988 29.7451C12.398 30.2648 12.6593 30.8478 13.1825 31.0473L34.0232 38.994C34.5463 39.1935 35.133 38.9346 35.3338 38.4149L37.6614 32.3918M35.7077 37.4474C37.9296 38.0261 40.281 36.8632 41.1233 34.6836C41.634 33.3621 41.4806 31.9497 40.8258 30.8091M37.1714 32.6369L32.6731 34.8868C32.4177 35.0146 32.12 35.0294 31.8531 34.9276L9.5369 26.4182C9.01372 26.2187 8.75241 25.6357 8.95324 25.116L12.226 16.647C12.4268 16.1273 13.0137 15.8677 13.5369 16.0672L44.6744 27.9403C45.0856 28.0971 45.1142 28.6641 44.7208 28.8609L40.8258 30.8091M37.1714 32.6369L37.6614 32.3918M37.6614 32.3918L40.8258 30.8091M24.816 39.7994C24.7854 39.7894 24.7549 39.7786 24.7245 39.767L21.7719 38.6411M4.0147 53H5.0294C5.5898 53 6.04409 52.5487 6.04409 51.9921V39.8967C6.04409 39.34 5.5898 38.8888 5.0294 38.8888H4.0147C3.4543 38.8888 3 39.34 3 39.8967V51.9921C3 52.5487 3.4543 53 4.0147 53Z" stroke="#554596" stroke-width="1.5"/>
<defs>
<filter id="filter0_f_1063_3236" x="1" y="44" width="46" height="18" filterUnits="userSpaceOnUse" color-interpolation-filters="sRGB">
<feFlood flood-opacity="0" result="BackgroundImageFix"/>
<feBlend mode="normal" in="SourceGraphic" in2="BackgroundImageFix" result="shape"/>
<feGaussianBlur stdDeviation="2" result="effect1_foregroundBlur_1063_3236"/>
</filter>
</defs>
</svg>
