<svg width="20" height="20" viewBox="0 0 20 20" fill="none" xmlns="http://www.w3.org/2000/svg">
<path d="M19.6915 12.509C19.0999 11.8881 17.8866 11.534 16.1716 11.534C15.255 11.534 14.1908 11.6223 13.0375 11.829C12.3309 11.1495 11.6874 10.4073 11.115 9.61151C10.6717 9.01985 10.2867 8.36986 9.93171 7.74821C10.6125 5.67824 10.9375 3.99243 10.9375 2.77995C10.9375 1.41998 10.435 0 8.98589 0C8.54256 0 8.0984 0.266662 7.86174 0.650823C7.21175 1.80414 7.50758 4.31743 8.6309 6.80155C8.20809 8.07189 7.73467 9.32482 7.21175 10.5573C6.73843 11.6815 6.20594 12.8348 5.61428 13.8989C2.36183 15.2006 0.261868 16.7089 0.0252053 17.8905C-0.0631266 18.3347 0.084371 18.7489 0.410199 19.0739C0.52853 19.163 0.94269 19.518 1.65185 19.518C3.81014 19.518 6.08761 16.0281 7.24092 13.9289C8.1284 13.6331 9.01589 13.3373 9.90254 13.1006C10.838 12.8466 11.7856 12.6394 12.7417 12.4798C15.0183 14.5198 17.0291 14.8456 18.0349 14.8456C19.2766 14.8456 19.7207 14.3423 19.8682 13.9289C20.1349 13.3956 19.9565 12.8048 19.6907 12.509H19.6915ZM18.5082 13.3673C18.4191 13.8106 17.9749 14.1064 17.3549 14.1064C17.1774 14.1064 17.0299 14.0764 16.8516 14.0473C15.7283 13.7806 14.6633 13.2189 13.5991 12.3315C14.4196 12.1927 15.2503 12.1236 16.0824 12.1248C16.7041 12.1248 17.2366 12.154 17.5907 12.2431C18.0049 12.3315 18.6557 12.5981 18.5074 13.3664L18.5082 13.3673ZM12.2383 11.9773C11.4132 12.1319 10.5945 12.3193 9.78421 12.539C9.07756 12.7227 8.37719 12.9297 7.68425 13.1598C8.04446 12.4621 8.37994 11.752 8.69006 11.0307C9.04506 10.2023 9.34005 9.34485 9.63671 8.54653C9.93171 9.04902 10.2575 9.55234 10.5825 9.99567C11.1139 10.6731 11.6661 11.334 12.2383 11.9773ZM8.36507 0.975817C8.41734 0.871058 8.49734 0.782645 8.59637 0.720199C8.6954 0.657754 8.80967 0.62367 8.92672 0.621656C9.54755 0.621656 9.66588 1.33081 9.66588 1.8933C9.66588 2.83912 9.37005 4.28826 8.86756 5.94407C8.00924 3.63744 7.95091 1.7158 8.36507 0.975817ZM5.11179 14.7564C3.60348 17.2405 2.15434 18.778 1.26768 18.778C1.1077 18.779 0.951868 18.7272 0.824359 18.6305C0.646862 18.453 0.557697 18.2464 0.616862 18.0097C0.794359 17.1222 2.50933 15.8806 5.11179 14.7564Z" fill="url(#paint0_linear_1167_354)"/>
<defs>
<linearGradient id="paint0_linear_1167_354" x1="0" y1="0" x2="20.1626" y2="0.169462" gradientUnits="userSpaceOnUse">
<stop stop-color="#554596"/>
<stop offset="1" stop-color="#C92C7B"/>
</linearGradient>
</defs>
</svg>
