<svg width="48" height="62" viewBox="0 0 48 62" fill="none" xmlns="http://www.w3.org/2000/svg">
<g filter="url(#filter0_f_1063_3438)">
<path d="M43 53C43 55.7614 34.4934 58 24 58C13.5066 58 5 55.7614 5 53C5 50.2386 13.5066 48 24 48C34.4934 48 43 50.2386 43 53Z" fill="#554596" fill-opacity="0.1"/>
</g>
<path d="M31.5002 35.2818C27.7233 33.5112 23.3738 32.9698 19.1699 32.8445M32.8015 34.1592C31.3952 30.3493 29.0971 27.1678 25.9254 24.6738M34.3935 34.1592C35.8973 29.8418 36.1226 25.3208 35.2042 20.7292M35.5678 37.7522C37.0117 38.7628 38.4296 39.8635 39.593 40.9339M34.0002 38.7754C34.4945 41.899 34.5036 45.4355 33.985 48.4701M32.4049 38.5C29.1135 44.2362 23.5659 48.9716 16.751 50.3124M41.9608 40.214C42.6344 38.2669 43.0002 36.1762 43.0002 34C43.0002 28.3919 40.5705 23.3512 36.7063 19.8733M39.9364 44.35C38.7244 46.2124 37.1947 47.8491 35.4243 49.1833M31.3053 51.5449C29.0564 52.4824 26.5888 53 24.0002 53C21.4068 53 18.9347 52.4804 16.6824 51.5396M12.5969 49.1989C8.87143 46.3993 6.20863 42.2619 5.32191 37.5M14.1063 48.4437C13.5019 43.8544 14.2749 39.2343 15.9332 35.045M14.4204 32.8985C11.7954 33.0882 9.42393 33.591 7.06535 34.401M18.0328 30.7313C19.2828 28.5883 20.7558 26.6327 22.3649 24.946M25.9254 21.8189C28.036 20.2946 30.2552 19.2404 32.4324 18.7972M21.851 22.1141C19.5352 20.9896 17.0087 20.2646 14.3608 19.9342M5.03711 32.8062C5.31783 28.2781 7.18456 24.1795 10.0885 21.0591M13.7489 18C16.7064 16.1012 20.2247 15 24.0002 15C27.1449 15 30.1111 15.764 32.7235 17.1164" stroke="#554596" stroke-width="1.5"/>
<path d="M43.5 42C43.5 43.3807 42.3807 44.5 41 44.5C39.6193 44.5 38.5 43.3807 38.5 42C38.5 40.6193 39.6193 39.5 41 39.5C42.3807 39.5 43.5 40.6193 43.5 42Z" stroke="#C92C7B" stroke-width="1.5"/>
<path d="M36 36.5C36 37.8807 34.8807 39 33.5 39C32.1193 39 31 37.8807 31 36.5C31 35.1193 32.1193 34 33.5 34C34.8807 34 36 35.1193 36 36.5Z" stroke="#C92C7B" stroke-width="1.5"/>
<path d="M19.5 32.5C19.5 33.8807 18.3807 35 17 35C15.6193 35 14.5 33.8807 14.5 32.5C14.5 31.1193 15.6193 30 17 30C18.3807 30 19.5 31.1193 19.5 32.5Z" stroke="#C92C7B" stroke-width="1.5"/>
<path d="M17 50.5C17 51.8807 15.8807 53 14.5 53C13.1193 53 12 51.8807 12 50.5C12 49.1193 13.1193 48 14.5 48C15.8807 48 17 49.1193 17 50.5Z" stroke="#C92C7B" stroke-width="1.5"/>
<path d="M7.5 35.5C7.5 36.8807 6.38071 38 5 38C3.61929 38 2.5 36.8807 2.5 35.5C2.5 34.1193 3.61929 33 5 33C6.38071 33 7.5 34.1193 7.5 35.5Z" stroke="#C92C7B" stroke-width="1.5"/>
<path d="M26.5 23.5C26.5 24.8807 25.3807 26 24 26C22.6193 26 21.5 24.8807 21.5 23.5C21.5 22.1193 22.6193 21 24 21C25.3807 21 26.5 22.1193 26.5 23.5Z" stroke="#C92C7B" stroke-width="1.5"/>
<path d="M37 18.5C37 19.8807 35.8807 21 34.5 21C33.1193 21 32 19.8807 32 18.5C32 17.1193 33.1193 16 34.5 16C35.8807 16 37 17.1193 37 18.5Z" stroke="#C92C7B" stroke-width="1.5"/>
<path d="M36 50.5C36 51.8807 34.8807 53 33.5 53C32.1193 53 31 51.8807 31 50.5C31 49.1193 32.1193 48 33.5 48C34.8807 48 36 49.1193 36 50.5Z" stroke="#C92C7B" stroke-width="1.5"/>
<path d="M15 19.5C15 20.8807 13.8807 22 12.5 22C11.1193 22 10 20.8807 10 19.5C10 18.1193 11.1193 17 12.5 17C13.8807 17 15 18.1193 15 19.5Z" stroke="#C92C7B" stroke-width="1.5"/>
<defs>
<filter id="filter0_f_1063_3438" x="1" y="44" width="46" height="18" filterUnits="userSpaceOnUse" color-interpolation-filters="sRGB">
<feFlood flood-opacity="0" result="BackgroundImageFix"/>
<feBlend mode="normal" in="SourceGraphic" in2="BackgroundImageFix" result="shape"/>
<feGaussianBlur stdDeviation="2" result="effect1_foregroundBlur_1063_3438"/>
</filter>
</defs>
</svg>
