<svg width="224" height="52" viewBox="0 0 224 52" fill="none" xmlns="http://www.w3.org/2000/svg">
<path d="M10.157 20.7856C9.75742 23.1118 9.53371 25.4972 9.49353 27.8781C11.3342 29.4658 11.7154 29.7902 14.4976 31.8221C16.7141 30.4358 16.9084 30.315 19.8883 28.4991C19.9133 26.1137 20.0251 23.7193 20.2228 21.3809C17.7044 19.5672 17.2331 19.189 15.4891 17.7781C12.4213 19.4531 12.3681 19.4833 10.157 20.7856Z" fill="#514EA1"/>
<path d="M14.542 1.50935C12.8223 2.79174 11.2416 4.30174 9.79978 6.03933C9.69277 7.37911 9.69465 7.47131 9.99127 8.84849C11.5395 7.93875 12.0269 7.69762 14.4206 6.53901C15.5044 4.80916 16.7253 3.2147 18.0395 1.80271C17.9769 0.927789 18.0151 0.604127 18.2266 0C16.6675 0.54664 16.1831 0.766239 15.1312 1.24302L15.129 1.24401C14.952 1.32424 14.7589 1.41176 14.542 1.50935Z" fill="url(#paint0_linear_980_2420)"/>
<path d="M22.8508 0.328989L18.7157 2.04139C17.4462 3.40544 16.2732 4.95834 15.244 6.74682C16.1048 8.06482 16.1521 8.11153 17.6652 9.60637C19.8535 8.49602 20.3887 8.23669 21.6009 7.64927L21.6052 7.64717C21.9161 7.49651 22.2716 7.32423 22.7109 7.11051C23.1843 5.33405 23.7543 3.74644 24.3735 2.30098L24.2953 2.21558C23.4672 1.31172 23.3629 1.19792 22.8508 0.328989Z" fill="url(#paint1_linear_980_2420)"/>
<path d="M23.6612 7.14056C24.1418 5.44116 24.6244 3.83823 25.2045 2.42622C27.0117 1.47026 27.3823 1.26922 28.7253 0.516326C29.6774 1.26787 30.01 1.50197 31.5756 2.48154C31.7446 3.87735 31.8716 5.51537 32.0006 7.24985C30.3826 8.29823 29.9203 8.59777 27.5591 9.95176C25.5653 8.64365 25.1371 8.3151 23.6612 7.14056Z" fill="url(#paint2_linear_980_2420)"/>
<path d="M39.2596 2.08243C40.2291 3.51473 41.0606 5.09534 41.896 6.86962C43.412 7.62348 44.0941 7.97008 44.7762 8.31664L44.7767 8.31688C45.3125 8.58914 45.8486 8.86149 46.7889 9.33128L46.8863 9.17371C47.7031 7.8529 47.7616 7.75845 48.1876 6.44298C46.9302 4.72626 45.5347 3.15784 44.0493 1.78514C43.816 1.69353 43.6113 1.6133 43.4264 1.54088C42.2218 1.06884 41.8635 0.928447 39.9721 0.12936C39.8479 0.955555 39.8038 1.10183 39.2596 2.08243Z" fill="url(#paint3_linear_980_2420)"/>
<path d="M2.74289 14.9202C3.56704 12.7853 4.66698 10.7384 5.99801 8.8277C7.07624 7.95753 7.39096 7.71548 8.87711 6.69534C8.81072 7.92003 8.86499 8.3423 9.11715 9.51305C8.0153 11.4658 7.05326 13.5568 6.32039 15.6898C4.56611 16.998 4.16202 17.3361 2.99633 18.3963C2.6433 16.7573 2.64139 16.6632 2.74289 14.9202Z" fill="url(#paint4_linear_980_2420)"/>
<path d="M9.81908 9.91269C8.73068 11.7736 7.78792 13.873 7.08069 16.0158C8.17572 17.7486 8.24179 17.8257 9.74527 19.5802L9.83023 19.6794C9.99011 19.5816 10.1383 19.491 10.2768 19.4062C11.9863 18.3599 12.2381 18.2058 15.0728 16.7133C15.5445 14.5273 16.1599 12.4833 16.8232 10.4866C15.3982 8.98497 15.1947 8.69011 14.3923 7.52753L14.3689 7.4935C12.148 8.58373 11.642 8.87247 10.1361 9.73182L9.81908 9.91269Z" fill="url(#paint5_linear_980_2420)"/>
<path d="M16.1403 16.7303C16.6158 14.5266 17.1899 12.5158 17.8122 10.5527C20.189 9.38431 20.7769 9.07084 22.0154 8.41054L22.0168 8.4098C22.2911 8.2635 22.5975 8.10017 22.9623 7.90675C24.4047 9.04539 24.8373 9.37723 26.9477 10.7939C26.81 12.2023 26.7201 13.658 26.6282 15.1449L26.6282 15.1454L26.6282 15.1458C26.5895 15.7727 26.5504 16.4055 26.5072 17.0424C25.9931 17.3372 25.5877 17.5708 25.2356 17.7736C23.9545 18.5117 23.3802 18.8425 20.8479 20.2355C18.6762 18.7072 18.0587 18.2258 16.5387 17.0408C16.4126 16.9425 16.2802 16.8393 16.1403 16.7303Z" fill="url(#paint6_linear_980_2420)"/>
<path d="M27.8104 14.5122C27.7644 15.3503 27.7173 16.2087 27.6782 17.0905C29.173 18.0257 29.8266 18.4171 31.1339 19.2C31.6753 19.5242 32.3291 19.9158 33.2009 20.4407C35.9168 18.7205 36.385 18.4172 38.3483 17.0065C38.1149 14.8613 37.7887 12.8159 37.416 10.8204C35.9463 10.0203 35.2021 9.59784 34.474 9.18448C33.919 8.86943 33.3732 8.55963 32.5226 8.09188C32.3659 8.19343 32.2194 8.28849 32.0807 8.37858C30.7686 9.23038 30.1409 9.63786 27.9786 10.8778C27.9456 12.05 27.8793 13.2581 27.8104 14.5118L27.8104 14.5122Z" fill="url(#paint7_linear_980_2420)"/>
<path d="M0.729065 19.6805C0.844772 19.1122 0.960479 18.544 1.07863 18.0956C1.11935 17.9917 1.15667 17.8958 1.19144 17.8064C1.48207 17.0595 1.59404 16.7717 2.019 16.1476C1.91251 17.4809 2.01277 18.0295 2.35342 19.4449C1.8222 21.7972 1.47097 24.2373 1.47595 26.6697L1.42944 26.7478C0.693568 27.9832 0.523055 28.2695 0.279621 29.174C0.0317615 27.9402 0.0280246 27.7567 0.00747358 26.7474L0 26.3804C0.108984 22.9816 0.108985 22.9816 0.386112 21.2775L0.467696 20.9085C0.555505 20.5329 0.642285 20.1067 0.729065 19.6805Z" fill="url(#paint8_linear_980_2420)"/>
<path d="M2.98889 19.7441C2.47055 22.0882 2.18895 24.4758 2.09596 26.8594C3.1709 28.683 3.51185 29.2103 4.86575 30.8335C6.20844 29.5894 6.67205 29.1906 8.53045 27.7895C8.57529 25.3584 8.76258 22.9729 9.18663 20.6308C7.69028 18.962 7.34933 18.4348 6.42277 16.9481C4.61054 18.2995 4.19309 18.6488 2.98889 19.7441Z" fill="url(#paint9_linear_980_2420)"/>
<path d="M21.0775 28.545C21.0762 26.1423 21.17 23.7375 21.3609 21.4287C23.7794 20.0804 24.4474 19.695 25.5811 19.041L25.5817 19.0406C25.992 18.8039 26.4634 18.5319 27.1009 18.1664C27.9224 18.6644 28.4904 19.0131 29.0209 19.3388L29.0215 19.3391C29.9533 19.9112 30.7702 20.4126 32.6426 21.5281C32.6905 23.8808 32.6918 26.2835 32.6931 28.6862C31.0639 29.7021 30.3535 30.1316 29.1694 30.8473C28.5773 31.2052 27.8669 31.6346 26.864 32.2447C25.892 31.6279 25.1647 31.1717 24.5529 30.788L24.5524 30.7877C23.2829 29.9914 22.5101 29.5066 21.0775 28.545Z" fill="url(#paint10_linear_980_2420)"/>
<path d="M33.9009 23.2747L33.9009 23.276C33.9461 25.0548 33.9916 26.8476 33.9562 28.6144L39.6412 32.1187C42.4099 30.2453 42.9726 29.841 45.035 28.3259C44.9871 25.9742 44.8907 23.5746 44.606 21.277C42.3906 19.9524 42.1499 19.8106 39.1171 18.0626C38.9084 18.202 38.716 18.3307 38.5354 18.4514L38.534 18.4524C37.011 19.4708 36.3355 19.9224 33.8591 21.5093C33.871 22.0952 33.8859 22.6842 33.9009 23.2747Z" fill="url(#paint11_linear_980_2420)"/>
<path d="M46.1705 28.3606C46.1208 25.917 45.9781 23.5731 45.6457 21.2334C47.5551 19.6463 48.0504 19.1467 49.307 17.8791C49.4017 17.7836 49.5008 17.6836 49.6051 17.5785C52.1035 19.0891 52.4406 19.3263 54.1257 20.5123C54.5993 22.8 54.8388 25.2396 54.8866 27.5854C53.3541 29.2321 52.9826 29.6313 50.7919 31.5855C50.4607 31.3497 50.1769 31.1468 49.9174 30.9613L49.9154 30.96C48.8181 30.1755 48.1544 29.7012 46.1705 28.3606Z" fill="url(#paint12_linear_980_2420)"/>
<path d="M55.4705 20.2788C55.9526 22.6073 56.2189 25.015 56.2439 27.428C57.6004 28.8169 57.9465 29.2075 58.7432 30.3846C59.7206 28.572 59.7669 28.4715 60.3293 26.4439C60.3043 24.031 59.9897 21.6243 59.411 19.2979C59.3386 19.1948 59.2713 19.0968 59.2075 19.0039C59.0744 18.8099 58.9565 18.6381 58.8391 18.4892L58.7395 18.3421C58.2939 17.8043 57.8986 17.365 57.1356 16.6599C56.665 18.2229 56.576 18.3761 55.6407 19.9858L55.6397 19.9875C55.5861 20.0796 55.5298 20.1766 55.4705 20.2788Z" fill="url(#paint13_linear_980_2420)"/>
<path d="M2.22007 37.6586C1.42832 35.4629 0.866986 33.1179 0.585665 30.7669C0.611689 30.6736 0.635974 30.5861 0.658863 30.5037L0.658979 30.5032C0.980439 29.3452 1.02638 29.1796 1.74227 27.9518C2.76899 29.7831 2.89514 29.9377 4.31536 31.6788L4.48368 31.8852C4.71735 34.1892 5.1377 36.4891 5.83611 38.6868C5.7855 38.7671 5.73783 38.8425 5.69285 38.9136L5.6924 38.9143C5.05441 39.9232 4.95876 40.0745 4.71736 41.0681C3.51555 39.6985 3.20492 39.2094 2.31332 37.8054L2.22007 37.6586Z" fill="url(#paint14_linear_980_2420)"/>
<path d="M5.2843 32.0447C5.52007 34.2912 5.99428 36.5815 6.60796 38.722C8.39587 40.2007 8.92719 40.6297 11.192 42.196C11.3217 42.0886 11.4398 41.9904 11.5498 41.899C12.4689 41.1342 12.8231 40.8396 14.7492 39.5739C14.3254 37.4293 14.0412 35.135 13.9004 32.8864L13.5241 32.6066C11.1152 30.8153 10.7237 30.5241 8.92652 28.9313C6.96195 30.4422 6.54154 30.7939 5.2843 32.0447Z" fill="url(#paint15_linear_980_2420)"/>
<path d="M15.8353 39.5274C15.4111 37.3807 15.1751 35.1319 15.0341 32.881C16.4951 31.947 17.0665 31.6053 18.0592 31.0118L18.0603 31.0112C18.6304 30.6703 19.3396 30.2463 20.436 29.5794C20.9466 29.9143 21.3657 30.1917 21.7414 30.4403C23.0681 31.3182 23.8539 31.8381 26.2181 33.2762C26.2174 35.5792 26.3098 37.7821 26.4003 39.8871C25.4436 40.4316 24.7776 40.8067 24.2386 41.1103L24.2378 41.1108C23.2144 41.6872 22.6482 42.0061 21.4173 42.7387C18.5312 41.1351 18.0498 40.8515 15.8353 39.5274Z" fill="url(#paint16_linear_980_2420)"/>
<path d="M27.4088 33.3108C27.4547 35.5616 27.5005 37.8124 27.5908 39.9154L32.8787 42.9341L33.0507 42.8393C35.7533 41.3499 35.9825 41.2236 38.3744 39.8292C38.664 37.718 38.8566 35.511 38.9057 33.2581C36.2917 31.646 35.0017 30.8523 34.2869 30.4125L34.2864 30.4122C33.6596 30.0266 33.4754 29.9132 33.228 29.7584L32.8326 30.0077C30.9089 31.2208 30.3173 31.5938 27.4088 33.3108Z" fill="url(#paint17_linear_980_2420)"/>
<path d="M50.0504 39.3008C50.6146 37.1179 50.9897 34.8426 51.1775 32.5714C53.5239 30.5429 53.9363 30.0999 55.3108 28.6231C56.6008 29.8976 56.9353 30.228 57.853 31.607C57.5715 33.8803 57.0571 36.2068 56.3515 38.3445C56.261 38.4357 56.1746 38.5228 56.0918 38.6063L56.0898 38.6083C54.8318 39.877 54.3966 40.3158 52.5828 41.8026C51.7666 40.8073 51.5755 40.6184 50.0504 39.3008Z" fill="url(#paint18_linear_980_2420)"/>
<path d="M5.5057 42.1501C6.44 44.118 7.65458 45.9829 9.0534 47.6498C9.22393 47.7745 9.38117 47.8899 9.52867 47.9981C10.6623 48.8299 11.2213 49.2402 12.8241 50.2353C13.0445 49.5032 13.0886 49.3567 13.7295 48.4701C12.661 46.8445 11.8247 45.0684 11.0325 43.1459C8.69284 41.4993 8.16648 41.0742 6.53935 39.7517L6.47105 39.8621C5.80715 40.9356 5.75596 41.0183 5.5057 42.1501Z" fill="url(#paint19_linear_980_2420)"/>
<path d="M23.3271 48.8886C22.8694 47.2922 22.5042 45.5963 22.1832 43.7535C22.4259 43.6129 22.642 43.4878 22.8392 43.3737C24.2731 42.5439 24.7053 42.2937 27.0853 40.8729L32.3435 43.8746C32.2973 45.3822 32.187 46.8265 32.0878 48.1271C32.0652 48.4234 32.0431 48.7123 32.0225 48.9928C30.0517 50.0204 29.6097 50.2536 28.5389 50.8188L27.8621 51.1758L23.3271 48.8886Z" fill="url(#paint20_linear_980_2420)"/>
<path d="M33.4556 43.8578C33.3051 45.7016 33.1526 47.4486 32.9502 49.0514C34.7602 50.0467 35.136 50.2795 36.2097 50.9447L36.4709 51.1064C37.3771 50.6616 37.9915 50.3571 38.5163 50.0971L38.5172 50.0967L38.518 50.0963C39.3671 49.6756 39.9817 49.3711 41.2186 48.7758C41.9389 47.2103 42.5612 45.4531 43.1337 43.5517C42.8585 43.3682 42.6213 43.209 42.4024 43.0622L42.4018 43.0618C41.446 42.4206 40.8394 42.0136 38.9413 40.833C37.423 41.673 36.7515 42.0427 35.6327 42.6587L35.632 42.659C35.0724 42.9671 34.4008 43.3368 33.4556 43.8578Z" fill="url(#paint21_linear_980_2420)"/>
<path d="M42.1937 48.803C42.9494 47.2103 43.6086 45.4286 44.1731 43.5534C44.4759 43.3703 44.7522 43.2033 45.0068 43.0494C47.0249 41.8297 47.6811 41.4331 49.3468 40.3366C50.6097 41.4228 50.9601 41.8167 51.5207 42.4468C51.6095 42.5465 51.7035 42.6522 51.8072 42.7674C50.9192 44.6974 49.8439 46.5358 48.6247 48.1386C46.7924 49.2291 46.4255 49.4281 44.0863 50.6729C43.4692 49.9697 43.2327 49.736 42.1937 48.803Z" fill="url(#paint22_linear_980_2420)"/>
<path d="M91.7543 27.5898C91.7543 25.1294 89.9049 23.8987 86.2073 23.8987H77.941C76.2024 23.8987 75.3325 23.5104 75.3325 22.7328V20.8632C75.3325 20.0867 76.2024 19.6985 77.941 19.6985H90.7824V17.1732H77.941C74.2422 17.1732 72.3939 18.4039 72.3939 20.8632V22.7328C72.3939 25.1932 74.2422 26.4239 77.941 26.4239H86.2073C87.9459 26.4239 88.8146 26.8122 88.8146 27.5898V30.6241C88.8146 31.3693 87.9459 31.7408 86.2073 31.7408H72.9239V34.266H86.2073C89.9049 34.266 91.7543 33.0521 91.7543 30.6241V27.5898Z" fill="white"/>
<path d="M102.581 17.1732H105.521V34.2649H102.581V17.1732Z" fill="white"/>
<path d="M131.353 24.9414H134.293V30.623C134.293 33.051 132.443 34.2649 128.746 34.2649H121.871C118.173 34.2649 116.324 33.0353 116.324 30.5749V20.8621C116.324 18.4028 118.173 17.1732 121.871 17.1732H134.049V19.6973H121.871C120.132 19.6973 119.263 20.0856 119.263 20.8621V30.5749C119.263 31.3514 120.132 31.7397 121.871 31.7397H128.746C130.483 31.7397 131.353 31.3682 131.353 30.623V24.9414Z" fill="white"/>
<path d="M147.946 34.266V21.2526L163.439 34.266H165.76V17.1732H162.974V30.284L147.481 17.1732H145.161V34.266H147.946Z" fill="white"/>
<path d="M198.055 34.2649H194.872L186.716 20.3038L178.428 34.2649H175.29L185.634 17.1732H187.777L198.055 34.2649Z" fill="white"/>
<path d="M210.59 17.1732H207.651V34.2649H223.21V31.7408H210.59V17.1732Z" fill="white"/>
<path fill-rule="evenodd" clip-rule="evenodd" d="M157.548 45.7039C157.949 45.7039 158.294 45.8147 158.585 46.0362C158.875 46.2555 159.064 46.5867 159.15 47.0286H159.91C159.867 46.6974 159.776 46.4054 159.637 46.1526C159.498 45.9008 159.325 45.6893 159.117 45.5215C158.91 45.3537 158.672 45.225 158.405 45.1377C158.138 45.0505 157.855 45.008 157.557 45.008C157.119 45.008 156.73 45.093 156.392 45.2653C156.054 45.4354 155.77 45.6692 155.545 45.9657C155.318 46.2622 155.145 46.6091 155.028 47.0074C154.91 47.4057 154.852 47.8309 154.852 48.284C154.852 48.736 154.906 49.1612 155.016 49.5561C155.125 49.9511 155.289 50.2935 155.509 50.5833C155.727 50.8742 156.002 51.1024 156.332 51.268C156.663 51.4336 157.05 51.5153 157.493 51.5153C158.224 51.5153 158.8 51.2982 159.222 50.863C159.643 50.4277 159.891 49.8168 159.965 49.0336H159.205C159.19 49.2887 159.141 49.5271 159.061 49.7463C158.98 49.969 158.87 50.1592 158.73 50.3181C158.587 50.4781 158.42 50.6023 158.225 50.6929C158.03 50.7824 157.808 50.8272 157.557 50.8272C157.215 50.8272 156.922 50.7589 156.677 50.6191C156.431 50.4792 156.23 50.2924 156.072 50.0574C155.915 49.8213 155.8 49.5461 155.725 49.2294C155.649 48.9117 155.612 48.5771 155.612 48.2225C155.612 47.8969 155.649 47.5836 155.725 47.2815C155.8 46.9794 155.915 46.7109 156.072 46.4759C156.23 46.2409 156.43 46.053 156.673 45.9142C156.915 45.7744 157.207 45.7039 157.548 45.7039ZM110.099 45.8258V45.1287H114.669V45.8258H112.764V51.3496H112.004V45.8258H110.099ZM125.614 45.1287V45.8258H122.429V47.8039H125.398V48.501H122.429V50.6525H125.638V51.3507H121.669V45.1287H125.614ZM133.764 50.6525V45.1287H133.004V51.3507H136.789V50.6525H133.764ZM147.756 45.1287V45.8258H144.571V47.8039H147.54V48.501H144.571V50.6525H147.78V51.3507H143.81V45.1287H147.756ZM167.881 49.1936C167.956 49.498 168.073 49.7732 168.234 50.0171C168.394 50.261 168.599 50.4579 168.85 50.6056C169.101 50.7544 169.399 50.8272 169.746 50.8272C170.093 50.8272 170.392 50.7544 170.641 50.6056C170.892 50.4579 171.098 50.261 171.258 50.0171C171.419 49.7732 171.536 49.498 171.61 49.1936C171.685 48.8893 171.722 48.5794 171.722 48.2661C171.722 47.9528 171.685 47.6429 171.61 47.3386C171.536 47.032 171.419 46.7579 171.258 46.5139C171.098 46.2712 170.892 46.0742 170.641 45.9265C170.392 45.7777 170.093 45.7039 169.746 45.7039C169.399 45.7039 169.101 45.7777 168.85 45.9265C168.599 46.0742 168.394 46.2712 168.234 46.5139C168.073 46.7579 167.956 47.032 167.881 47.3386C167.806 47.6429 167.769 47.9528 167.769 48.2661C167.769 48.5794 167.806 48.8893 167.881 49.1936ZM167.181 47.0409C167.296 46.6505 167.467 46.3025 167.696 46.0004C167.927 45.6983 168.212 45.4566 168.553 45.2765C168.894 45.0975 169.293 45.008 169.746 45.008C170.198 45.008 170.596 45.0975 170.938 45.2765C171.28 45.4566 171.565 45.6983 171.795 46.0004C172.024 46.3025 172.195 46.6505 172.311 47.0409C172.426 47.4337 172.483 47.842 172.483 48.2661C172.483 48.6901 172.426 49.0985 172.311 49.4901C172.195 49.8817 172.024 50.2297 171.795 50.5318C171.565 50.8339 171.28 51.0733 170.938 51.2501C170.596 51.428 170.198 51.5153 169.746 51.5153C169.293 51.5153 168.894 51.428 168.553 51.2501C168.212 51.0733 167.927 50.8339 167.696 50.5318C167.467 50.2297 167.296 49.8817 167.181 49.4901C167.067 49.0985 167.009 48.6901 167.009 48.2661C167.009 47.842 167.067 47.4337 167.181 47.0409ZM182.653 50.3571L180.853 45.1287H179.812V51.3507H180.533V46.1748H180.55L182.334 51.3507H182.981L184.766 46.1748H184.783V51.3507H185.503V45.1287H184.462L182.653 50.3571Z" fill="#ED3382"/>
<defs>
<linearGradient id="paint0_linear_980_2420" x1="-2.75718" y1="-3.41184" x2="45.9098" y2="41.8825" gradientUnits="userSpaceOnUse">
<stop stop-color="#514EA1"/>
<stop offset="1" stop-color="#EB3E97"/>
</linearGradient>
<linearGradient id="paint1_linear_980_2420" x1="-2.75718" y1="-3.41184" x2="45.9098" y2="41.8825" gradientUnits="userSpaceOnUse">
<stop stop-color="#514EA1"/>
<stop offset="1" stop-color="#EB3E97"/>
</linearGradient>
<linearGradient id="paint2_linear_980_2420" x1="-2.75718" y1="-3.41184" x2="45.9098" y2="41.8825" gradientUnits="userSpaceOnUse">
<stop stop-color="#514EA1"/>
<stop offset="1" stop-color="#EB3E97"/>
</linearGradient>
<linearGradient id="paint3_linear_980_2420" x1="-2.75718" y1="-3.41184" x2="45.9098" y2="41.8825" gradientUnits="userSpaceOnUse">
<stop stop-color="#514EA1"/>
<stop offset="1" stop-color="#EB3E97"/>
</linearGradient>
<linearGradient id="paint4_linear_980_2420" x1="-2.75718" y1="-3.41184" x2="45.9098" y2="41.8825" gradientUnits="userSpaceOnUse">
<stop stop-color="#514EA1"/>
<stop offset="1" stop-color="#EB3E97"/>
</linearGradient>
<linearGradient id="paint5_linear_980_2420" x1="-2.75718" y1="-3.41184" x2="45.9098" y2="41.8825" gradientUnits="userSpaceOnUse">
<stop stop-color="#514EA1"/>
<stop offset="1" stop-color="#EB3E97"/>
</linearGradient>
<linearGradient id="paint6_linear_980_2420" x1="-2.75718" y1="-3.41184" x2="45.9098" y2="41.8825" gradientUnits="userSpaceOnUse">
<stop stop-color="#514EA1"/>
<stop offset="1" stop-color="#EB3E97"/>
</linearGradient>
<linearGradient id="paint7_linear_980_2420" x1="-2.75718" y1="-3.41184" x2="45.9098" y2="41.8825" gradientUnits="userSpaceOnUse">
<stop stop-color="#514EA1"/>
<stop offset="1" stop-color="#EB3E97"/>
</linearGradient>
<linearGradient id="paint8_linear_980_2420" x1="-2.75718" y1="-3.41184" x2="45.9098" y2="41.8825" gradientUnits="userSpaceOnUse">
<stop stop-color="#514EA1"/>
<stop offset="1" stop-color="#EB3E97"/>
</linearGradient>
<linearGradient id="paint9_linear_980_2420" x1="-2.75718" y1="-3.41184" x2="45.9098" y2="41.8825" gradientUnits="userSpaceOnUse">
<stop stop-color="#514EA1"/>
<stop offset="1" stop-color="#EB3E97"/>
</linearGradient>
<linearGradient id="paint10_linear_980_2420" x1="-2.75718" y1="-3.41184" x2="45.9098" y2="41.8825" gradientUnits="userSpaceOnUse">
<stop stop-color="#514EA1"/>
<stop offset="1" stop-color="#EB3E97"/>
</linearGradient>
<linearGradient id="paint11_linear_980_2420" x1="-2.75718" y1="-3.41184" x2="45.9098" y2="41.8825" gradientUnits="userSpaceOnUse">
<stop stop-color="#514EA1"/>
<stop offset="1" stop-color="#EB3E97"/>
</linearGradient>
<linearGradient id="paint12_linear_980_2420" x1="-2.75718" y1="-3.41184" x2="45.9098" y2="41.8825" gradientUnits="userSpaceOnUse">
<stop stop-color="#514EA1"/>
<stop offset="1" stop-color="#EB3E97"/>
</linearGradient>
<linearGradient id="paint13_linear_980_2420" x1="-2.75718" y1="-3.41184" x2="45.9098" y2="41.8825" gradientUnits="userSpaceOnUse">
<stop stop-color="#514EA1"/>
<stop offset="1" stop-color="#EB3E97"/>
</linearGradient>
<linearGradient id="paint14_linear_980_2420" x1="-2.75718" y1="-3.41184" x2="45.9098" y2="41.8825" gradientUnits="userSpaceOnUse">
<stop stop-color="#514EA1"/>
<stop offset="1" stop-color="#EB3E97"/>
</linearGradient>
<linearGradient id="paint15_linear_980_2420" x1="-2.75718" y1="-3.41184" x2="45.9098" y2="41.8825" gradientUnits="userSpaceOnUse">
<stop stop-color="#514EA1"/>
<stop offset="1" stop-color="#EB3E97"/>
</linearGradient>
<linearGradient id="paint16_linear_980_2420" x1="-2.75718" y1="-3.41184" x2="45.9098" y2="41.8825" gradientUnits="userSpaceOnUse">
<stop stop-color="#514EA1"/>
<stop offset="1" stop-color="#EB3E97"/>
</linearGradient>
<linearGradient id="paint17_linear_980_2420" x1="-2.75718" y1="-3.41184" x2="45.9098" y2="41.8825" gradientUnits="userSpaceOnUse">
<stop stop-color="#514EA1"/>
<stop offset="1" stop-color="#EB3E97"/>
</linearGradient>
<linearGradient id="paint18_linear_980_2420" x1="-2.75718" y1="-3.41184" x2="45.9098" y2="41.8825" gradientUnits="userSpaceOnUse">
<stop stop-color="#514EA1"/>
<stop offset="1" stop-color="#EB3E97"/>
</linearGradient>
<linearGradient id="paint19_linear_980_2420" x1="-2.75718" y1="-3.41184" x2="45.9098" y2="41.8825" gradientUnits="userSpaceOnUse">
<stop stop-color="#514EA1"/>
<stop offset="1" stop-color="#EB3E97"/>
</linearGradient>
<linearGradient id="paint20_linear_980_2420" x1="-2.75718" y1="-3.41184" x2="45.9098" y2="41.8825" gradientUnits="userSpaceOnUse">
<stop stop-color="#514EA1"/>
<stop offset="1" stop-color="#EB3E97"/>
</linearGradient>
<linearGradient id="paint21_linear_980_2420" x1="-2.75718" y1="-3.41184" x2="45.9098" y2="41.8825" gradientUnits="userSpaceOnUse">
<stop stop-color="#514EA1"/>
<stop offset="1" stop-color="#EB3E97"/>
</linearGradient>
<linearGradient id="paint22_linear_980_2420" x1="-2.75718" y1="-3.41184" x2="45.9098" y2="41.8825" gradientUnits="userSpaceOnUse">
<stop stop-color="#514EA1"/>
<stop offset="1" stop-color="#EB3E97"/>
</linearGradient>
</defs>
</svg>
