<svg width="24" height="25" viewBox="0 0 24 25" fill="none" xmlns="http://www.w3.org/2000/svg">
<path d="M20.1055 17.1924V19.7727C20.1065 20.0122 20.0574 20.2493 19.9615 20.4688C19.8655 20.6883 19.7247 20.8853 19.5482 21.0472C19.3717 21.2092 19.1633 21.3325 18.9364 21.4092C18.7095 21.4859 18.4691 21.5144 18.2305 21.4929C15.5839 21.2053 13.0416 20.3009 10.808 18.8524C8.72985 17.5319 6.96797 15.77 5.64745 13.6919C4.19388 11.4481 3.2893 8.89346 3.00698 6.23494C2.98549 5.99709 3.01375 5.75738 3.08998 5.53106C3.16621 5.30474 3.28872 5.09677 3.44972 4.9204C3.61073 4.74402 3.80669 4.6031 4.02514 4.50661C4.24359 4.41012 4.47974 4.36017 4.71855 4.35995H7.29881C7.71622 4.35584 8.12088 4.50365 8.43736 4.77583C8.75385 5.048 8.96057 5.42598 9.01899 5.8393C9.12789 6.66504 9.32987 7.47581 9.62105 8.25614C9.73677 8.56399 9.76181 8.89855 9.69322 9.22019C9.62462 9.54184 9.46526 9.83708 9.23401 10.0709L8.1417 11.1632C9.36608 13.3165 11.149 15.0994 13.3022 16.3238L14.3945 15.2314C14.6284 15.0002 14.9236 14.8408 15.2453 14.7722C15.5669 14.7036 15.9015 14.7287 16.2093 14.8444C16.9896 15.1356 17.8004 15.3376 18.6262 15.4465C19.044 15.5054 19.4255 15.7159 19.6983 16.0378C19.971 16.3597 20.116 16.7706 20.1055 17.1924Z" stroke="white" stroke-opacity="0.6" stroke-width="1.5" stroke-linecap="round" stroke-linejoin="round"/>
</svg>
