<svg width="48" height="62" viewBox="0 0 48 62" fill="none" xmlns="http://www.w3.org/2000/svg">
<g filter="url(#filter0_f_1063_3248)">
<path d="M43 53C43 55.7614 34.4934 58 24 58C13.5066 58 5 55.7614 5 53C5 50.2386 13.5066 48 24 48C34.4934 48 43 50.2386 43 53Z" fill="#554596" fill-opacity="0.1"/>
</g>
<path d="M19.7532 24C19.0144 26.0933 17.1773 27.6012 15.0001 27.9319L15 31.1898C15 36.6772 18.5881 41.9644 24 43.9403C29.4119 41.9644 33 36.6772 33 31.1898V27.9319C30.8228 27.6012 28.9856 26.0933 28.2468 24H19.7532Z" stroke="#554596" stroke-width="1.5"/>
<path d="M17.75 17C17.75 16.5858 17.4142 16.25 17 16.25C16.5858 16.25 16.25 16.5858 16.25 17H17.75ZM23.2024 47.3694L23.4417 46.6586H23.4417L23.2024 47.3694ZM24 47.6378L23.7607 48.3486L24 48.4292L24.2393 48.3486L24 47.6378ZM14.0961 24.5V23.75H14.0961L14.0961 24.5ZM12.5 24.5001L12.5 25.2501L12.5 24.5001ZM35.4999 24.5001L35.4999 25.2501L35.4999 24.5001ZM33.9039 24.5L33.9039 23.75H33.9039V24.5ZM24.7976 47.3694L24.5583 46.6586H24.5583L24.7976 47.3694ZM11.5 28L11.5 28.75L12.25 28.75V28H11.5ZM36.4999 25.5H37.2499V25.5L36.4999 25.5ZM5.5 28V28.75H5.5L5.5 28ZM5.75 22C5.75 21.5858 5.41421 21.25 5 21.25C4.58579 21.25 4.25 21.5858 4.25 22H5.75ZM35.7499 30.5C35.7499 30.9142 36.0857 31.25 36.4999 31.25C36.9141 31.25 37.2499 30.9142 37.2499 30.5H35.7499ZM36.2552 34V33.25H35.6248L35.5164 33.871L36.2552 34ZM41 34.75C41.4142 34.75 41.75 34.4142 41.75 34C41.75 33.5858 41.4142 33.25 41 33.25V34.75ZM27.5 21.2501C27.9142 21.2501 28.25 20.9143 28.25 20.5001C28.25 20.0859 27.9142 19.7501 27.5 19.7501V21.2501ZM16.9732 23.5122C17.1658 23.1455 17.0247 22.6921 16.6581 22.4994C16.2914 22.3067 15.8379 22.4478 15.6453 22.8145L16.9732 23.5122ZM12.25 31.5C12.25 31.0858 11.9142 30.75 11.5 30.75C11.0858 30.75 10.75 31.0858 10.75 31.5H12.25ZM16.8371 43.5868L17.3485 43.0383L17.3485 43.0383L16.8371 43.5868ZM20.3749 45.2755C20.0161 45.0685 19.5575 45.1915 19.3504 45.5502C19.1434 45.909 19.2663 46.3676 19.6251 46.5747L20.3749 45.2755ZM30.8307 43.8114L31.3357 44.3659L31.3357 44.3659L30.8307 43.8114ZM32.707 40.5659C32.4673 40.9037 32.5467 41.3719 32.8845 41.6116C33.2223 41.8514 33.6905 41.7719 33.9302 41.4341L32.707 40.5659ZM11.6955 34L12.4364 33.8834L11.6955 34ZM43.75 27.5V22H42.25V27.5H43.75ZM42.5 28.75C43.1904 28.75 43.75 28.1904 43.75 27.5H42.25C42.25 27.3619 42.3619 27.25 42.5 27.25V28.75ZM9.25 40.5V47.5H10.75V40.5H9.25ZM9.5 47.25H7V48.75H9.5V47.25ZM10.5 39.25C9.80964 39.25 9.25 39.8096 9.25 40.5H10.75C10.75 40.6381 10.6381 40.75 10.5 40.75V39.25ZM9.25 47.5C9.25 47.3619 9.36193 47.25 9.5 47.25V48.75C10.1904 48.75 10.75 48.1904 10.75 47.5H9.25ZM31.75 21V17H30.25V21H31.75ZM37.25 40.5V47.5H38.75V40.5H37.25ZM38.5 48.75H41V47.25H38.5V48.75ZM37.5 40.75C37.3619 40.75 37.25 40.6381 37.25 40.5H38.75C38.75 39.8096 38.1904 39.25 37.5 39.25V40.75ZM37.25 47.5C37.25 48.1904 37.8096 48.75 38.5 48.75V47.25C38.6381 47.25 38.75 47.3619 38.75 47.5H37.25ZM17.75 51V43.958H16.25V51H17.75ZM17.75 20.0001V17H16.25V20.0001H17.75ZM22.9632 48.0802L23.7607 48.3486L24.2393 46.927L23.4417 46.6586L22.9632 48.0802ZM14.0961 23.75L12.4999 23.7501L12.5 25.2501L14.0961 25.25L14.0961 23.75ZM35.5 23.7501L33.9039 23.75L33.9039 25.25L35.4999 25.2501L35.5 23.7501ZM24.2393 48.3486L25.0368 48.0802L24.5583 46.6586L23.7607 46.927L24.2393 48.3486ZM10.75 25.5001V28H12.25V25.5001H10.75ZM35.4999 25.2501C35.638 25.2501 35.7499 25.362 35.7499 25.5001L37.2499 25.5C37.2499 24.5336 36.4664 23.7501 35.5 23.7501L35.4999 25.2501ZM12.4999 23.7501C11.5335 23.7501 10.75 24.5336 10.75 25.5001H12.25C12.25 25.362 12.3619 25.2501 12.5 25.2501L12.4999 23.7501ZM11.5 27.25L5.5 27.25L5.5 28.75L11.5 28.75L11.5 27.25ZM5.75 27.5V22H4.25V27.5H5.75ZM5.5 27.25C5.63807 27.25 5.75 27.3619 5.75 27.5H4.25C4.25 28.1904 4.80964 28.75 5.5 28.75V27.25ZM36.2552 34.75H41V33.25H36.2552V34.75ZM27.5 19.7501H17.5V21.2501H27.5V19.7501ZM33.9039 23.75C33.2064 23.75 32.6984 23.4766 32.3478 23.0342C31.9825 22.5732 31.75 21.876 31.75 21H30.25C30.25 22.124 30.5468 23.1768 31.1722 23.9658C31.8122 24.7734 32.7561 25.25 33.9039 25.25V23.75ZM15.6453 22.8145C15.3481 23.3801 14.7566 23.75 14.0961 23.75V25.25C15.324 25.25 16.4215 24.5621 16.9732 23.5122L15.6453 22.8145ZM16.25 20.0001C16.25 20.6905 16.8096 21.2501 17.5 21.2501V19.7501C17.6381 19.7501 17.75 19.862 17.75 20.0001H16.25ZM19.6251 46.5747C20.668 47.1766 21.7841 47.6833 22.9632 48.0802L23.4417 46.6586C22.3574 46.2936 21.3321 45.828 20.3749 45.2755L19.6251 46.5747ZM17.75 43.958C17.75 43.6038 17.5999 43.2726 17.3485 43.0383L16.3257 44.1354C16.2805 44.0933 16.25 44.0304 16.25 43.958H17.75ZM25.0368 48.0802C27.4257 47.276 29.5532 45.9893 31.3357 44.3659L30.3256 43.2569C28.6908 44.7458 26.7428 45.9232 24.5583 46.6586L25.0368 48.0802ZM31.75 51V43.8856H30.25V51H31.75ZM34.618 40.3914C35.791 38.4741 36.6069 36.3468 36.9941 34.129L35.5164 33.871C35.1626 35.8978 34.4158 37.8477 33.3385 39.6086L34.618 40.3914ZM33.9783 40.75H37.5V39.25H33.9783V40.75ZM33.9302 41.4341C34.1715 41.0942 34.4009 40.7464 34.618 40.3914L33.3385 39.6086C33.1391 39.9345 32.9285 40.2538 32.707 40.5659L33.9302 41.4341ZM31.3357 44.3659C30.9262 44.7388 30.25 44.4596 30.25 43.8856H31.75C31.75 43.1366 30.8645 42.7662 30.3256 43.2569L31.3357 44.3659ZM10.75 31.5C10.75 32.3841 10.8196 33.2583 10.9546 34.1166L12.4364 33.8834C12.3134 33.1016 12.25 32.3053 12.25 31.5H10.75ZM11.6955 33.25H7V34.75H11.6955V33.25ZM10.9546 34.1166C11.3066 36.3533 12.1027 38.48 13.2684 40.3906L14.5489 39.6094C13.4827 37.8619 12.757 35.9208 12.4364 33.8834L10.9546 34.1166ZM13.2684 40.3906C14.1057 41.7631 15.1339 43.0244 16.3257 44.1354L17.3485 43.0383C16.2561 42.0198 15.3148 40.8647 14.5489 39.6094L13.2684 40.3906ZM13.9086 39.25H10.5V40.75H13.9086V39.25ZM37.2499 30.5V28H35.7499V30.5H37.2499ZM37.2499 28V25.5H35.7499V28H37.2499ZM36.4999 28.75H42.5V27.25H36.4999V28.75Z" fill="#554596"/>
<path d="M3 20C3 18.8954 3.89543 18 5 18C6.10457 18 7 18.8954 7 20C7 21.1046 6.10457 22 5 22C3.89543 22 3 21.1046 3 20Z" stroke="#C92C7B" stroke-width="1.5"/>
<path d="M45 20C45 18.8954 44.1046 18 43 18C41.8954 18 41 18.8954 41 20C41 21.1046 41.8954 22 43 22C44.1046 22 45 21.1046 45 20Z" stroke="#C92C7B" stroke-width="1.5"/>
<path d="M3 34C3 32.8954 3.89543 32 5 32C6.10457 32 7 32.8954 7 34C7 35.1046 6.10457 36 5 36C3.89543 36 3 35.1046 3 34Z" stroke="#C92C7B" stroke-width="1.5"/>
<path d="M15 15C15 13.8954 15.8954 13 17 13C18.1046 13 19 13.8954 19 15C19 16.1046 18.1046 17 17 17C15.8954 17 15 16.1046 15 15Z" stroke="#C92C7B" stroke-width="1.5"/>
<path d="M15 53C15 51.8954 15.8954 51 17 51C18.1046 51 19 51.8954 19 53C19 54.1046 18.1046 55 17 55C15.8954 55 15 54.1046 15 53Z" stroke="#C92C7B" stroke-width="1.5"/>
<path d="M29 15C29 13.8954 29.8954 13 31 13C32.1046 13 33 13.8954 33 15C33 16.1046 32.1046 17 31 17C29.8954 17 29 16.1046 29 15Z" stroke="#C92C7B" stroke-width="1.5"/>
<path d="M29 53C29 51.8954 29.8954 51 31 51C32.1046 51 33 51.8954 33 53C33 54.1046 32.1046 55 31 55C29.8954 55 29 54.1046 29 53Z" stroke="#C92C7B" stroke-width="1.5"/>
<path d="M45 34C45 32.8954 44.1046 32 43 32C41.8954 32 41 32.8954 41 34C41 35.1046 41.8954 36 43 36C44.1046 36 45 35.1046 45 34Z" stroke="#C92C7B" stroke-width="1.5"/>
<path d="M3 48C3 46.8954 3.89543 46 5 46C6.10457 46 7 46.8954 7 48C7 49.1046 6.10457 50 5 50C3.89543 50 3 49.1046 3 48Z" stroke="#C92C7B" stroke-width="1.5"/>
<path d="M45 48C45 46.8954 44.1046 46 43 46C41.8954 46 41 46.8954 41 48C41 49.1046 41.8954 50 43 50C44.1046 50 45 49.1046 45 48Z" stroke="#C92C7B" stroke-width="1.5"/>
<defs>
<filter id="filter0_f_1063_3248" x="1" y="44" width="46" height="18" filterUnits="userSpaceOnUse" color-interpolation-filters="sRGB">
<feFlood flood-opacity="0" result="BackgroundImageFix"/>
<feBlend mode="normal" in="SourceGraphic" in2="BackgroundImageFix" result="shape"/>
<feGaussianBlur stdDeviation="2" result="effect1_foregroundBlur_1063_3248"/>
</filter>
</defs>
</svg>
