<svg width="48" height="62" viewBox="0 0 48 62" fill="none" xmlns="http://www.w3.org/2000/svg">
<g filter="url(#filter0_f_1063_3267)">
<path d="M43 53C43 55.7614 34.4934 58 24 58C13.5066 58 5 55.7614 5 53C5 50.2386 13.5066 48 24 48C34.4934 48 43 50.2386 43 53Z" fill="#554596" fill-opacity="0.1"/>
</g>
<path d="M19.1896 50.3453C19.7895 52.4337 21.7411 54 24 54C26.259 54 28.2105 52.4337 28.8105 50.3453M19.1896 50.3453C19.0662 49.9159 19 49.4645 19 49V47.298M19.1896 50.3453C19.9534 50.5572 20.7276 50.7176 21.5073 50.8266M28.8105 50.3453C28.9338 49.9159 29 49.4645 29 49V47.2916M28.8105 50.3453C27.3939 50.7382 25.9413 50.9542 24.485 50.9935M29 47.2916C28.3405 47.4823 27.6728 47.6345 27.0002 47.7482M29 47.2916V43.9087C31.6454 42.6963 33.7627 40.5623 34.9534 37.9014C36.1748 35.1718 36.3331 32.0846 35.3972 29.2445C34.4613 26.4043 32.4987 24.0159 29.8939 22.5472C27.2891 21.0784 24.2298 20.6352 21.3152 21.3042C18.4006 21.9733 15.8409 23.7064 14.1374 26.1642C12.4339 28.6219 11.7095 31.6271 12.106 34.5911C12.5025 37.5551 13.9913 40.2642 16.2809 42.1878C17.1126 42.8865 18.0281 43.4633 19 43.9088M19 47.298C20.6058 47.7522 22.3507 48 24.0002 48M19 47.298V43.9088M19 43.9088C20.5593 44.6234 22.2638 45.0001 24 45C24 45 25.2194 45 26 44.844" stroke="#554596" stroke-width="1.5" stroke-linecap="round"/>
<path d="M21.5067 34.1955C22.2419 33.7315 23.1077 33.4831 23.9934 33.4821C24.8791 33.4811 25.7443 33.7276 26.4783 34.1899M19 30.6489C20.4203 29.5846 22.1838 29.0031 24.001 29C25.8182 28.9969 27.581 29.5723 29 30.6318" stroke="#C92C7B" stroke-width="1.5" stroke-linecap="round" stroke-linejoin="round"/>
<circle cx="24" cy="38" r="1" fill="#C92C7B"/>
<path d="M24 16V13M36.0208 20.9792L38.1421 18.8579M11.9792 20.9791L9.85791 18.8578M41 33H44M7 33H4M36.0208 45.0208L38.1421 47.1421M11.9792 45.0209L9.85791 47.1422" stroke="#554596" stroke-width="1.5" stroke-linecap="round"/>
<defs>
<filter id="filter0_f_1063_3267" x="1" y="44" width="46" height="18" filterUnits="userSpaceOnUse" color-interpolation-filters="sRGB">
<feFlood flood-opacity="0" result="BackgroundImageFix"/>
<feBlend mode="normal" in="SourceGraphic" in2="BackgroundImageFix" result="shape"/>
<feGaussianBlur stdDeviation="2" result="effect1_foregroundBlur_1063_3267"/>
</filter>
</defs>
</svg>
