<svg width="48" height="62" viewBox="0 0 48 62" fill="none" xmlns="http://www.w3.org/2000/svg">
<g filter="url(#filter0_f_1063_3279)">
<path d="M43 53C43 55.7614 34.4934 58 24 58C13.5066 58 5 55.7614 5 53C5 50.2386 13.5066 48 24 48C34.4934 48 43 50.2386 43 53Z" fill="#554596" fill-opacity="0.1"/>
</g>
<path d="M11 13.5359C11.7781 13.0867 12.6848 12.9125 13.574 13.0414C14.4631 13.1703 15.283 13.5949 15.9015 14.2466C16.52 14.8983 16.901 15.7393 16.9832 16.634C17.0654 17.5287 16.844 18.425 16.3547 19.1786C15.8653 19.9321 15.1366 20.4989 14.2858 20.7877C13.435 21.0765 12.5117 21.0705 11.6648 20.7706C10.8178 20.4706 10.0965 19.8943 9.61709 19.1345C9.13765 18.3746 8.928 17.4754 9.02191 16.5819" stroke="#554596" stroke-width="1.5" stroke-linecap="round"/>
<path d="M33.3126 26.7958C31.2957 24.4706 28.3195 23.0001 24.9999 23.0001C22.6372 23.0001 20.4485 23.745 18.6559 25.0128M33.3126 26.7958C34.9867 28.7258 35.9999 31.2447 35.9999 34.0001C35.9999 36.6001 35.0979 38.9893 33.5898 40.872M33.3126 26.7958L37.7949 22.9112M33.5898 40.872C31.5739 43.3886 28.4751 45.0001 24.9999 45.0001C23.7839 45.0001 22.614 44.8028 21.5204 44.4385M33.5898 40.872L38.4999 44.8001M21.5204 44.4385C17.6493 43.1487 14.7349 39.7657 14.1201 35.6321M21.5204 44.4385L20.2602 48.2193M14.1201 35.6321C14.0409 35.0996 13.9999 34.5547 13.9999 34.0001C13.9999 30.2877 15.839 27.0048 18.6559 25.0128M14.1201 35.6321L7.88696 36.5671M18.6559 25.0128L15.3001 20.2588" stroke="#554596" stroke-width="1.5"/>
<circle cx="40" cy="46" r="2" stroke="#C92C7B" stroke-width="1.5"/>
<circle cx="40" cy="21" r="3" stroke="#C92C7B" stroke-width="1.5"/>
<path d="M11 13.5359C11.7781 13.0867 12.6848 12.9125 13.574 13.0414C14.4631 13.1703 15.283 13.5949 15.9015 14.2466C16.52 14.8983 16.901 15.7393 16.9832 16.634C17.0654 17.5287 16.844 18.425 16.3547 19.1786C15.8653 19.9321 15.1366 20.4989 14.2858 20.7877C13.435 21.0765 12.5117 21.0705 11.6648 20.7706C10.8178 20.4706 10.0965 19.8943 9.61709 19.1345C9.13765 18.3746 8.928 17.4754 9.02191 16.5819" stroke="#C92C7B" stroke-width="1.5" stroke-linecap="round"/>
<circle cx="5" cy="37" r="3" stroke="#C92C7B" stroke-width="1.5"/>
<path d="M22.4641 50C22.0149 49.2219 21.3167 48.6177 20.4822 48.2848C19.6477 47.9518 18.7254 47.9095 17.8639 48.1647C17.0025 48.4199 16.252 48.9577 15.7334 49.6914C15.2149 50.4252 14.9585 51.3121 15.0055 52.2093C15.0525 53.1066 15.4002 53.9619 15.9926 54.6374C16.585 55.3129 17.3876 55.7693 18.2711 55.933C19.1545 56.0968 20.0673 55.9583 20.8625 55.54C21.6576 55.1216 22.2887 54.4477 22.6542 53.6269" stroke="#C92C7B" stroke-width="1.5" stroke-linecap="round"/>
<path d="M22 32H22.75V31.25H22V32ZM22 36V36.75H22.75V36H22ZM26.7557 38.2983L27.4453 38.0034L26.7557 38.2983ZM22.1646 40.1708C22.5351 40.3561 22.9856 40.2059 23.1708 39.8354C23.3561 39.4649 23.2059 39.0144 22.8354 38.8292L22.1646 40.1708ZM20.5 38.5H19.75C19.75 38.7841 19.9105 39.0438 20.1646 39.1708L20.5 38.5ZM20 32.75H22V31.25H20V32.75ZM21.25 32V36H22.75V32H21.25ZM22 35.25H20V36.75H22V35.25ZM19.75 35V33H18.25V35H19.75ZM20 35.25C19.8619 35.25 19.75 35.1381 19.75 35H18.25C18.25 35.9665 19.0335 36.75 20 36.75V35.25ZM20 31.25C19.0335 31.25 18.25 32.0335 18.25 33H19.75C19.75 32.8619 19.8619 32.75 20 32.75V31.25ZM30.25 34C30.25 35.5826 29.9813 36.9802 29.5755 37.9542C29.3719 38.4428 29.1485 38.7893 28.9388 39.0022C28.7317 39.2124 28.5839 39.25 28.5 39.25V40.75C29.1064 40.75 29.6163 40.4519 30.0074 40.0548C30.3959 39.6604 30.7113 39.1282 30.9601 38.5311C31.4591 37.3335 31.75 35.7311 31.75 34H30.25ZM28.5 28.75C28.5839 28.75 28.7317 28.7876 28.9388 28.9978C29.1485 29.2107 29.3719 29.5572 29.5755 30.0458C29.9813 31.0198 30.25 32.4174 30.25 34H31.75C31.75 32.2689 31.4591 30.6665 30.9601 29.4689C30.7113 28.8718 30.3959 28.3396 30.0074 27.9452C29.6163 27.5481 29.1064 27.25 28.5 27.25V28.75ZM22 36.25C22.2041 36.25 22.413 36.2416 22.604 36.2348C22.8008 36.2278 22.9852 36.2221 23.1682 36.2245C23.5325 36.2293 23.8587 36.2664 24.1653 36.3735C24.7333 36.5718 25.4173 37.0764 26.0662 38.5933L27.4453 38.0034C26.6869 36.2303 25.743 35.3356 24.6599 34.9574C24.1411 34.7761 23.6359 34.7305 23.1878 34.7246C22.9646 34.7217 22.7475 34.7288 22.5506 34.7358C22.3479 34.743 22.1709 34.75 22 34.75V36.25ZM28.5 39.25C28.4173 39.25 28.2734 39.2137 28.0716 39.0127C27.8668 38.8087 27.6473 38.4756 27.4453 38.0034L26.0662 38.5933C26.3146 39.1741 26.628 39.6918 27.0131 40.0754C27.4012 40.462 27.9042 40.75 28.5 40.75V39.25ZM22 33.25C22.1709 33.25 22.3479 33.257 22.5506 33.2642C22.7475 33.2712 22.9646 33.2782 23.1878 33.2753C23.6359 33.2695 24.1411 33.2238 24.6599 33.0426C25.743 32.6643 26.6869 31.7697 27.4453 29.9966L26.0662 29.4067C25.4173 30.9236 24.7333 31.4281 24.1653 31.6265C23.8587 31.7336 23.5325 31.7707 23.1682 31.7754C22.9852 31.7778 22.8008 31.7722 22.604 31.7651C22.413 31.7583 22.2041 31.75 22 31.75V33.25ZM22.8354 38.8292L20.8354 37.8292L20.1646 39.1708L22.1646 40.1708L22.8354 38.8292ZM21.25 38.5V36H19.75V38.5H21.25ZM27.4453 38.0034C27.0282 37.0283 26.75 35.6104 26.75 34H25.25C25.25 35.7603 25.5509 37.3886 26.0662 38.5933L27.4453 38.0034ZM26.75 34C26.75 32.4174 27.0187 31.0198 27.4245 30.0458C27.6281 29.5572 27.8515 29.2107 28.0612 28.9978C28.2683 28.7876 28.4161 28.75 28.5 28.75V27.25C27.8936 27.25 27.3837 27.5481 26.9926 27.9452C26.6041 28.3396 26.2887 28.8718 26.0399 29.4689C25.5409 30.6665 25.25 32.2689 25.25 34H26.75Z" fill="#554596"/>
<circle cx="27" cy="18" r="1" fill="#554596"/>
<circle cx="31" cy="49" r="1" fill="#554596"/>
<circle cx="41" cy="34" r="1" fill="#554596"/>
<circle cx="10" cy="28" r="1" fill="#554596"/>
<circle cx="12" cy="44" r="1" fill="#554596"/>
<defs>
<filter id="filter0_f_1063_3279" x="1" y="44" width="46" height="18" filterUnits="userSpaceOnUse" color-interpolation-filters="sRGB">
<feFlood flood-opacity="0" result="BackgroundImageFix"/>
<feBlend mode="normal" in="SourceGraphic" in2="BackgroundImageFix" result="shape"/>
<feGaussianBlur stdDeviation="2" result="effect1_foregroundBlur_1063_3279"/>
</filter>
</defs>
</svg>
