<svg width="48" height="48" viewBox="0 0 48 48" fill="none" xmlns="http://www.w3.org/2000/svg">
<path d="M37 37.9195C42.0533 37.4183 46 33.159 46 27.9789C46 22.6909 41.8872 18.3625 36.6828 18.0119C35.3181 11.7163 29.7104 7 23 7C15.268 7 9 13.2617 9 20.9859C9 21.3412 9.01326 21.6934 9.03931 22.042C5.07399 22.516 2 25.8878 2 29.9769C2 34.3907 5.58172 37.9688 10 37.9688H13" stroke="#554596" stroke-width="1.5" stroke-linecap="round"/>
<path d="M26.4034 27.81C27.3398 27.9923 28.2004 28.4492 28.875 29.1221C29.5495 29.7951 30.0075 30.6536 30.1902 31.5878M27.3785 23.021C29.324 23.2366 31.1381 24.1057 32.523 25.4856C33.908 26.8655 34.7814 28.6742 35 30.6147M33.0662 39.2102V42.0793C33.0673 42.3457 33.0126 42.6093 32.9056 42.8534C32.7987 43.0974 32.6418 43.3165 32.4451 43.4966C32.2483 43.6766 32.0161 43.8137 31.7631 43.8991C31.5102 43.9844 31.2422 44.0161 30.9763 43.9921C28.0263 43.6723 25.1926 42.6667 22.7029 41.056C20.3866 39.5876 18.4228 37.6285 16.9509 35.3177C15.3307 32.8227 14.3225 29.982 14.0078 27.0258C13.9838 26.7613 14.0153 26.4948 14.1003 26.2431C14.1853 25.9915 14.3218 25.7602 14.5013 25.5641C14.6807 25.368 14.8992 25.2113 15.1427 25.104C15.3861 24.9967 15.6494 24.9411 15.9155 24.9409H18.7916C19.2568 24.9363 19.7079 25.1007 20.0606 25.4033C20.4134 25.706 20.6438 26.1263 20.7089 26.5859C20.8303 27.5041 21.0554 28.4056 21.38 29.2733C21.509 29.6156 21.5369 29.9877 21.4604 30.3453C21.384 30.703 21.2063 31.0313 20.9486 31.2913L19.7311 32.5059C21.0958 34.9003 23.083 36.8828 25.4831 38.2442L26.7006 37.0296C26.9613 36.7725 27.2903 36.5953 27.6489 36.519C28.0074 36.4427 28.3803 36.4706 28.7234 36.5992C29.5932 36.923 30.4969 37.1476 31.4173 37.2687C31.883 37.3343 32.3083 37.5683 32.6123 37.9262C32.9163 38.2842 33.0779 38.7411 33.0662 39.2102Z" stroke="#C92C7B" stroke-width="1.5" stroke-linecap="round" stroke-linejoin="round"/>
</svg>
