<svg width="48" height="48" viewBox="0 0 48 48" fill="none" xmlns="http://www.w3.org/2000/svg">
<rect x="36" y="23.1274" width="9" height="18.8725" rx="1" stroke="#554596" stroke-width="1.5"/>
<ellipse cx="39" cy="26.1073" rx="1" ry="0.993289" fill="#554596"/>
<ellipse cx="39" cy="29.0873" rx="1" ry="0.993289" fill="#554596"/>
<ellipse cx="24" cy="22.1342" rx="1" ry="0.993289" fill="#C92C7B"/>
<ellipse cx="39" cy="39.0201" rx="1" ry="0.993289" fill="#554596"/>
<ellipse cx="42" cy="26.1073" rx="1" ry="0.993289" fill="#554596"/>
<ellipse cx="42" cy="29.0873" rx="1" ry="0.993289" fill="#554596"/>
<ellipse cx="42" cy="39.0201" rx="1" ry="0.993289" fill="#554596"/>
<ellipse cx="40.5" cy="34.0537" rx="2" ry="1.98658" stroke="#554596" stroke-width="1.5"/>
<path d="M32 37.0335H4C3.44772 37.0335 3 36.5888 3 36.0402V10.2147C3 9.66615 3.44772 9.22144 4 9.22144H8M45 19.1543V10.2147C45 9.66615 44.5523 9.22144 44 9.22144H40M32 42H12M21 37.0335V42M28 37.0335V42" stroke="#554596" stroke-width="1.5" stroke-linecap="round"/>
<path d="M19.8516 17.977C20.9673 16.9425 22.4753 16.3693 24.0002 16.3693C25.5249 16.3693 27.0327 16.9424 28.1484 17.9766M16.2139 13.4604C18.3817 11.6655 21.1793 10.6847 23.9998 10.6847C26.8204 10.6847 29.618 11.6655 31.7858 13.4604M12.584 8.95347C15.7964 6.39312 19.8831 5 23.9998 5C28.1166 5 32.2032 6.39312 35.4157 8.95347" stroke="#C92C7B" stroke-width="1.5" stroke-linecap="round"/>
</svg>
